<svg width="800" height="400" viewBox="0 0 800 400" xmlns="http://www.w3.org/2000/svg"><rect x="0" y="0" width="800" height="400" fill="white"></rect><rect x="42" y="42" width="24" height="24" fill="black"></rect><path fill="black" d="M81.4 49.5L77.8 60.7L74.5 60.7L79.5 46.2L83.5 46.2L88.5 60.7L85.2 60.7L81.5 49.5L81.4 49.5ZM77.6 57.4L77.6 55.0L85.3 55.0L85.3 57.4L77.6 57.4ZM92.9 54.4L92.9 54.4L92.9 60.7L89.8 60.7L89.8 49.8L92.7 49.8L92.7 51.7L92.9 51.7Q93.2 50.8 94.1 50.2Q94.9 49.7 96.1 49.7L96.1 49.7Q97.3 49.7 98.1 50.2Q99.0 50.7 99.4 51.6Q99.9 52.5 99.9 53.8L99.9 53.8L99.9 60.7L96.9 60.7L96.9 54.3Q96.9 53.3 96.4 52.7Q95.8 52.2 94.9 52.2L94.9 52.2Q94.3 52.2 93.9 52.4Q93.4 52.7 93.1 53.2Q92.9 53.7 92.9 54.4ZM106.0 60.9L106.0 60.9Q104.7 60.9 103.7 60.3Q102.7 59.6 102.1 58.4Q101.6 57.1 101.6 55.3L101.6 55.3Q101.6 53.4 102.2 52.2Q102.8 50.9 103.8 50.3Q104.8 49.7 106.0 49.7L106.0 49.7Q106.9 49.7 107.5 50.0Q108.1 50.3 108.5 50.7Q108.9 51.2 109.1 51.6L109.1 51.6L109.2 51.6L109.2 46.2L112.2 46.2L112.2 60.7L109.2 60.7L109.2 59.0L109.1 59.0Q108.9 59.4 108.5 59.9Q108.1 60.3 107.5 60.6Q106.9 60.9 106.0 60.9ZM106.9 58.5L106.9 58.5Q107.7 58.5 108.2 58.1Q108.7 57.7 109.0 57.0Q109.2 56.2 109.2 55.3L109.2 55.3Q109.2 54.3 109.0 53.6Q108.7 52.9 108.2 52.5Q107.7 52.1 106.9 52.1L106.9 52.1Q106.2 52.1 105.7 52.5Q105.2 52.9 104.9 53.6Q104.6 54.3 104.6 55.3L104.6 55.3Q104.6 56.2 104.9 56.9Q105.2 57.7 105.7 58.1Q106.2 58.5 106.9 58.5ZM117.4 60.7L114.3 60.7L114.3 49.8L117.3 49.8L117.3 51.7L117.4 51.7Q117.7 50.7 118.4 50.2Q119.1 49.7 120.0 49.7L120.0 49.7Q120.2 49.7 120.5 49.7Q120.8 49.7 121.0 49.8L121.0 49.8L121.0 52.4Q120.8 52.4 120.4 52.3Q120.0 52.3 119.7 52.3L119.7 52.3Q119.0 52.3 118.5 52.6Q118.0 52.9 117.7 53.4Q117.4 53.9 117.4 54.5L117.4 54.5L117.4 60.7ZM126.7 60.9L126.7 60.9Q125.0 60.9 123.8 60.2Q122.6 59.6 121.9 58.3Q121.2 57.0 121.2 55.3L121.2 55.3Q121.2 53.6 121.9 52.4Q122.6 51.1 123.7 50.4Q124.9 49.7 126.5 49.7L126.5 49.7Q127.6 49.7 128.6 50.0Q129.5 50.4 130.2 51.0Q130.9 51.7 131.3 52.8Q131.7 53.8 131.7 55.2L131.7 55.2L131.7 56.0L122.5 56.0L122.5 54.2L128.8 54.2Q128.8 53.5 128.5 53.0Q128.3 52.5 127.8 52.2Q127.3 51.9 126.6 51.9L126.6 51.9Q125.9 51.9 125.4 52.2Q124.8 52.6 124.5 53.1Q124.2 53.6 124.2 54.3L124.2 54.3L124.2 56.0Q124.2 56.9 124.5 57.4Q124.8 58.0 125.4 58.4Q126.0 58.7 126.7 58.7L126.7 58.7Q127.2 58.7 127.6 58.5Q128.1 58.4 128.4 58.1Q128.7 57.8 128.8 57.4L128.8 57.4L131.6 57.6Q131.4 58.6 130.7 59.4Q130.1 60.1 129.0 60.5Q128.0 60.9 126.7 60.9ZM136.4 60.9L136.4 60.9Q135.4 60.9 134.6 60.6Q133.8 60.2 133.3 59.5Q132.8 58.8 132.8 57.7L132.8 57.7Q132.8 56.8 133.1 56.1Q133.5 55.5 134.1 55.2Q134.6 54.8 135.4 54.6Q136.1 54.4 136.9 54.3L136.9 54.3Q137.9 54.2 138.4 54.1Q139.0 54.0 139.3 53.9Q139.6 53.7 139.6 53.3L139.6 53.3L139.6 53.3Q139.6 52.6 139.1 52.2Q138.7 51.9 137.9 51.9L137.9 51.9Q137.1 51.9 136.6 52.2Q136.2 52.6 136.0 53.1L136.0 53.1L133.2 52.9Q133.4 51.9 134.0 51.2Q134.7 50.5 135.6 50.1Q136.6 49.7 137.9 49.7L137.9 49.7Q138.9 49.7 139.7 49.9Q140.5 50.1 141.2 50.5Q141.8 51.0 142.2 51.7Q142.6 52.4 142.6 53.4L142.6 53.4L142.6 60.7L139.7 60.7L139.7 59.2L139.6 59.2Q139.4 59.7 138.9 60.1Q138.5 60.5 137.9 60.7Q137.2 60.9 136.4 60.9ZM137.3 58.8L137.3 58.8Q138.0 58.8 138.5 58.6Q139.0 58.3 139.3 57.9Q139.6 57.4 139.6 56.8L139.6 56.8L139.6 55.7Q139.4 55.8 139.2 55.8Q138.9 55.9 138.6 56.0Q138.3 56.0 138.0 56.1Q137.7 56.1 137.5 56.2L137.5 56.2Q136.9 56.2 136.5 56.4Q136.1 56.6 135.9 56.9Q135.7 57.1 135.7 57.6L135.7 57.6Q135.7 58.2 136.2 58.5Q136.6 58.8 137.3 58.8Z M159.3 60.7L149.5 60.7L149.5 46.2L159.3 46.2L159.3 48.7L152.6 48.7L152.6 52.2L158.8 52.2L158.8 54.7L152.6 54.7L152.6 58.2L159.3 58.2L159.3 60.7ZM170.4 52.9L170.4 52.9L167.7 53.1Q167.6 52.7 167.4 52.4Q167.1 52.2 166.8 52.0Q166.4 51.8 165.9 51.8L165.9 51.8Q165.1 51.8 164.7 52.1Q164.2 52.4 164.2 52.9L164.2 52.9Q164.2 53.3 164.5 53.6Q164.8 53.8 165.6 54.0L165.6 54.0L167.5 54.4Q169.1 54.7 169.9 55.4Q170.7 56.2 170.7 57.3L170.7 57.3Q170.7 58.4 170.1 59.2Q169.4 60.0 168.3 60.5Q167.3 60.9 165.8 60.9L165.8 60.9Q163.7 60.9 162.4 60.0Q161.1 59.1 160.9 57.6L160.9 57.6L163.9 57.4Q164.0 58.1 164.5 58.4Q165.0 58.8 165.8 58.8L165.8 58.8Q166.6 58.8 167.1 58.4Q167.6 58.1 167.6 57.6L167.6 57.6Q167.6 57.2 167.3 57.0Q166.9 56.7 166.2 56.6L166.2 56.6L164.3 56.2Q162.7 55.9 162.0 55.1Q161.2 54.3 161.2 53.1L161.2 53.1Q161.2 52.0 161.7 51.3Q162.3 50.5 163.4 50.1Q164.4 49.7 165.8 49.7L165.8 49.7Q167.9 49.7 169.1 50.5Q170.2 51.4 170.4 52.9ZM175.3 64.8L172.3 64.8L172.3 49.8L175.3 49.8L175.3 51.6L175.4 51.6Q175.6 51.2 176.0 50.7Q176.4 50.3 177.0 50.0Q177.6 49.7 178.5 49.7L178.5 49.7Q179.7 49.7 180.7 50.3Q181.7 50.9 182.3 52.2Q182.9 53.4 182.9 55.3L182.9 55.3Q182.9 57.1 182.3 58.4Q181.8 59.6 180.7 60.3Q179.7 60.9 178.5 60.9L178.5 60.9Q177.6 60.9 177.0 60.6Q176.4 60.3 176.0 59.9Q175.6 59.4 175.4 59.0L175.4 59.0L175.3 59.0L175.3 64.8ZM175.2 55.3L175.2 55.3Q175.2 56.2 175.5 57.0Q175.8 57.7 176.3 58.1Q176.8 58.5 177.5 58.5L177.5 58.5Q178.3 58.5 178.8 58.1Q179.3 57.7 179.6 56.9Q179.8 56.2 179.8 55.3L179.8 55.3Q179.8 54.3 179.6 53.6Q179.3 52.9 178.8 52.5Q178.3 52.1 177.5 52.1L177.5 52.1Q176.8 52.1 176.3 52.5Q175.8 52.9 175.5 53.6Q175.2 54.3 175.2 55.3ZM189.5 60.9L189.5 60.9Q187.9 60.9 186.7 60.2Q185.5 59.5 184.8 58.3Q184.2 57.0 184.2 55.3L184.2 55.3Q184.2 53.6 184.8 52.4Q185.5 51.1 186.7 50.4Q187.9 49.7 189.5 49.7L189.5 49.7Q191.2 49.7 192.4 50.4Q193.6 51.1 194.3 52.4Q194.9 53.6 194.9 55.3L194.9 55.3Q194.9 57.0 194.3 58.3Q193.6 59.5 192.4 60.2Q191.2 60.9 189.5 60.9ZM189.6 58.6L189.6 58.6Q190.3 58.6 190.8 58.2Q191.3 57.7 191.6 57.0Q191.8 56.2 191.8 55.3L191.8 55.3Q191.8 54.3 191.6 53.6Q191.3 52.8 190.8 52.4Q190.3 52.0 189.6 52.0L189.6 52.0Q188.8 52.0 188.3 52.4Q187.8 52.8 187.5 53.6Q187.2 54.3 187.2 55.3L187.2 55.3Q187.2 56.2 187.5 57.0Q187.8 57.7 188.3 58.2Q188.8 58.6 189.6 58.6ZM205.6 52.9L205.6 52.9L202.9 53.1Q202.8 52.7 202.6 52.4Q202.3 52.2 202.0 52.0Q201.6 51.8 201.0 51.8L201.0 51.8Q200.3 51.8 199.9 52.1Q199.4 52.4 199.4 52.9L199.4 52.9Q199.4 53.3 199.7 53.6Q200.0 53.8 200.8 54.0L200.8 54.0L202.7 54.4Q204.3 54.7 205.1 55.4Q205.9 56.2 205.9 57.3L205.9 57.3Q205.9 58.4 205.3 59.2Q204.6 60.0 203.5 60.5Q202.5 60.9 201.0 60.9L201.0 60.9Q198.9 60.9 197.6 60.0Q196.3 59.1 196.1 57.6L196.1 57.6L199.1 57.4Q199.2 58.1 199.7 58.4Q200.2 58.8 201.0 58.8L201.0 58.8Q201.8 58.8 202.3 58.4Q202.8 58.1 202.8 57.6L202.8 57.6Q202.8 57.2 202.5 57.0Q202.1 56.7 201.4 56.6L201.4 56.6L199.5 56.2Q197.9 55.9 197.2 55.1Q196.4 54.3 196.4 53.1L196.4 53.1Q196.4 52.0 196.9 51.3Q197.5 50.5 198.6 50.1Q199.6 49.7 201.0 49.7L201.0 49.7Q203.1 49.7 204.3 50.5Q205.4 51.4 205.6 52.9ZM210.5 60.7L207.5 60.7L207.5 49.8L210.5 49.8L210.5 60.7ZM209.0 48.4L209.0 48.4Q208.3 48.4 207.8 48.0Q207.4 47.5 207.4 46.9L207.4 46.9Q207.4 46.2 207.8 45.8Q208.3 45.3 209.0 45.3L209.0 45.3Q209.7 45.3 210.2 45.8Q210.6 46.2 210.6 46.9L210.6 46.9Q210.6 47.5 210.2 48.0Q209.7 48.4 209.0 48.4ZM211.8 49.8L218.4 49.8L218.4 52.1L211.8 52.1L211.8 49.8ZM213.3 57.8L213.3 47.2L216.4 47.2L216.4 57.4Q216.4 57.8 216.5 58.0Q216.6 58.2 216.8 58.3Q217.1 58.4 217.4 58.4L217.4 58.4Q217.6 58.4 217.8 58.4Q218.0 58.4 218.1 58.3L218.1 58.3L218.6 60.6Q218.4 60.7 218.0 60.8Q217.6 60.8 217.0 60.9L217.0 60.9Q215.9 60.9 215.0 60.6Q214.2 60.2 213.8 59.5Q213.3 58.8 213.3 57.8L213.3 57.8ZM224.9 60.9L224.9 60.9Q223.2 60.9 222.0 60.2Q220.8 59.5 220.2 58.3Q219.5 57.0 219.5 55.3L219.5 55.3Q219.5 53.6 220.2 52.4Q220.8 51.1 222.0 50.4Q223.2 49.7 224.9 49.7L224.9 49.7Q226.5 49.7 227.7 50.4Q228.9 51.1 229.6 52.4Q230.2 53.6 230.2 55.3L230.2 55.3Q230.2 57.0 229.6 58.3Q228.9 59.5 227.7 60.2Q226.5 60.9 224.9 60.9ZM224.9 58.6L224.9 58.6Q225.6 58.6 226.1 58.2Q226.6 57.7 226.9 57.0Q227.2 56.2 227.2 55.3L227.2 55.3Q227.2 54.3 226.9 53.6Q226.6 52.8 226.1 52.4Q225.6 52.0 224.9 52.0L224.9 52.0Q224.1 52.0 223.6 52.4Q223.1 52.8 222.8 53.6Q222.6 54.3 222.6 55.3L222.6 55.3Q222.6 56.2 222.8 57.0Q223.1 57.7 223.6 58.2Q224.1 58.6 224.9 58.6Z "></path><rect x="125" y="95" width="550" height="210" fill="black"></rect><path fill="white" d="M205.4 156.5L205.4 127.4L213.0 127.4L221.0 146.9L221.3 146.9L229.3 127.4L236.9 127.4L236.9 156.5L230.9 156.5L230.9 137.5L230.7 137.5L223.2 156.3L219.1 156.3L211.6 137.5L211.3 137.5L211.3 156.5L205.4 156.5ZM245.3 164.7L245.3 164.7Q244.1 164.7 243.1 164.5Q242.1 164.3 241.5 164.0L241.5 164.0L242.8 159.5Q243.9 159.8 244.7 159.9Q245.6 159.9 246.2 159.5Q246.9 159.0 247.3 158.0L247.3 158.0L247.6 157.1L239.8 134.7L246.2 134.7L250.7 150.7L250.9 150.7L255.5 134.7L261.9 134.7L253.4 158.8Q252.8 160.6 251.7 161.9Q250.7 163.2 249.1 163.9Q247.5 164.7 245.3 164.7Z M281.5 132.5L272.6 132.5L272.6 127.4L296.5 127.4L296.5 132.5L287.6 132.5L287.6 156.5L281.5 156.5L281.5 132.5ZM306.1 143.9L306.1 143.9L306.1 156.5L300.0 156.5L300.0 127.4L305.9 127.4L305.9 138.5L306.1 138.5Q306.9 136.6 308.5 135.5Q310.2 134.4 312.7 134.4L312.7 134.4Q314.9 134.4 316.6 135.4Q318.3 136.3 319.3 138.2Q320.2 140.0 320.2 142.6L320.2 142.6L320.2 156.5L314.2 156.5L314.2 143.7Q314.2 141.6 313.1 140.5Q312.1 139.4 310.3 139.4L310.3 139.4Q309.0 139.4 308.1 139.9Q307.1 140.5 306.6 141.5Q306.1 142.5 306.1 143.9ZM334.5 156.9L334.5 156.9Q331.2 156.9 328.8 155.5Q326.4 154.1 325.1 151.5Q323.8 149.0 323.8 145.7L323.8 145.7Q323.8 142.3 325.1 139.7Q326.4 137.2 328.8 135.8Q331.2 134.4 334.5 134.4L334.5 134.4Q337.8 134.4 340.2 135.8Q342.6 137.2 344.0 139.7Q345.3 142.3 345.3 145.7L345.3 145.7Q345.3 149.0 344.0 151.5Q342.6 154.1 340.2 155.5Q337.8 156.9 334.5 156.9ZM334.6 152.2L334.6 152.2Q336.1 152.2 337.1 151.4Q338.1 150.5 338.6 149.0Q339.1 147.5 339.1 145.6L339.1 145.6Q339.1 143.7 338.6 142.2Q338.1 140.7 337.1 139.9Q336.1 139.0 334.6 139.0L334.6 139.0Q333.0 139.0 332.0 139.9Q331.0 140.7 330.5 142.2Q329.9 143.7 329.9 145.6L329.9 145.6Q329.9 147.5 330.5 149.0Q331.0 150.5 332.0 151.4Q333.0 152.2 334.6 152.2ZM362.9 147.2L362.9 147.2L362.9 134.7L368.9 134.7L368.9 156.5L363.1 156.5L363.1 152.5L362.9 152.5Q362.2 154.4 360.4 155.6Q358.7 156.8 356.3 156.8L356.3 156.8Q354.1 156.8 352.4 155.8Q350.8 154.8 349.8 152.9Q348.9 151.1 348.9 148.5L348.9 148.5L348.9 134.7L354.9 134.7L354.9 147.5Q355.0 149.4 356.0 150.5Q357.0 151.6 358.7 151.6L358.7 151.6Q359.8 151.6 360.8 151.1Q361.7 150.6 362.3 149.6Q362.9 148.6 362.9 147.2ZM383.3 165.1L383.3 165.1Q380.3 165.1 378.2 164.3Q376.1 163.5 374.9 162.1Q373.7 160.7 373.3 159.0L373.3 159.0L378.9 158.3Q379.2 158.9 379.7 159.5Q380.3 160.1 381.2 160.4Q382.1 160.8 383.4 160.8L383.4 160.8Q385.4 160.8 386.7 159.8Q388.0 158.8 388.0 156.6L388.0 156.6L388.0 152.6L387.7 152.6Q387.3 153.5 386.5 154.3Q385.7 155.1 384.5 155.7Q383.2 156.2 381.5 156.2L381.5 156.2Q379.0 156.2 377.0 155.0Q375.0 153.9 373.8 151.5Q372.6 149.1 372.6 145.5L372.6 145.5Q372.6 141.8 373.8 139.3Q375.0 136.8 377.1 135.6Q379.1 134.4 381.5 134.4L381.5 134.4Q383.3 134.4 384.5 135.0Q385.8 135.6 386.5 136.5Q387.3 137.4 387.7 138.3L387.7 138.3L387.9 138.3L387.9 134.7L393.9 134.7L393.9 156.7Q393.9 159.5 392.6 161.3Q391.2 163.2 388.8 164.2Q386.4 165.1 383.3 165.1ZM383.4 151.6L383.4 151.6Q384.9 151.6 385.9 150.9Q386.9 150.2 387.4 148.8Q388.0 147.4 388.0 145.5L388.0 145.5Q388.0 143.6 387.4 142.2Q386.9 140.7 385.9 140.0Q384.9 139.2 383.4 139.2L383.4 139.2Q381.9 139.2 380.9 140.0Q379.9 140.8 379.3 142.2Q378.8 143.6 378.8 145.5L378.8 145.5Q378.8 147.4 379.3 148.8Q379.9 150.1 380.9 150.9Q381.9 151.6 383.4 151.6ZM404.5 143.9L404.5 143.9L404.5 156.5L398.4 156.5L398.4 127.4L404.3 127.4L404.3 138.5L404.6 138.5Q405.3 136.6 407.0 135.5Q408.6 134.4 411.1 134.4L411.1 134.4Q413.4 134.4 415.1 135.4Q416.8 136.3 417.7 138.2Q418.7 140.0 418.6 142.6L418.6 142.6L418.6 156.5L412.6 156.5L412.6 143.7Q412.6 141.6 411.6 140.5Q410.6 139.4 408.7 139.4L408.7 139.4Q407.5 139.4 406.5 139.9Q405.6 140.5 405.0 141.5Q404.5 142.5 404.5 143.9ZM421.6 134.7L434.7 134.7L434.7 139.2L421.6 139.2L421.6 134.7ZM424.5 150.6L424.5 129.4L430.6 129.4L430.6 149.8Q430.6 150.6 430.9 151.1Q431.1 151.5 431.6 151.7Q432.0 151.9 432.6 151.9L432.6 151.9Q433.1 151.9 433.5 151.8Q433.9 151.7 434.2 151.7L434.2 151.7L435.1 156.2Q434.6 156.3 433.8 156.5Q433.0 156.7 431.8 156.8L431.8 156.8Q429.6 156.9 428.0 156.2Q426.4 155.5 425.4 154.1Q424.5 152.7 424.5 150.6L424.5 150.6ZM456.2 140.9L456.2 140.9L450.6 141.2Q450.5 140.5 450.0 139.9Q449.6 139.4 448.8 139.0Q448.0 138.7 447.0 138.7L447.0 138.7Q445.6 138.7 444.6 139.3Q443.6 139.8 443.6 140.8L443.6 140.8Q443.6 141.6 444.3 142.1Q444.9 142.7 446.4 143.0L446.4 143.0L450.4 143.8Q453.5 144.5 455.1 145.9Q456.7 147.4 456.7 149.7L456.7 149.7Q456.7 151.9 455.4 153.5Q454.2 155.1 452.0 156.0Q449.8 156.9 447.0 156.9L447.0 156.9Q442.6 156.9 440.1 155.1Q437.5 153.3 437.1 150.2L437.1 150.2L443.0 149.8Q443.3 151.2 444.3 151.9Q445.4 152.5 447.0 152.5L447.0 152.5Q448.6 152.5 449.5 151.9Q450.5 151.3 450.5 150.3L450.5 150.3Q450.5 149.5 449.8 149.0Q449.1 148.4 447.7 148.2L447.7 148.2L443.9 147.4Q440.7 146.8 439.2 145.2Q437.6 143.6 437.6 141.2L437.6 141.2Q437.6 139.1 438.8 137.5Q439.9 136.0 442.0 135.2Q444.1 134.4 446.9 134.4L446.9 134.4Q451.0 134.4 453.4 136.1Q455.8 137.9 456.2 140.9Z M479.3 156.9L479.3 156.9Q476.0 156.9 473.6 155.5Q471.2 154.1 469.9 151.5Q468.5 149.0 468.5 145.7L468.5 145.7Q468.5 142.3 469.9 139.7Q471.2 137.2 473.6 135.8Q476.0 134.4 479.3 134.4L479.3 134.4Q482.6 134.4 485.0 135.8Q487.4 137.2 488.7 139.7Q490.0 142.3 490.0 145.7L490.0 145.7Q490.0 149.0 488.7 151.5Q487.4 154.1 485.0 155.5Q482.6 156.9 479.3 156.9ZM479.3 152.2L479.3 152.2Q480.8 152.2 481.8 151.4Q482.8 150.5 483.4 149.0Q483.9 147.5 483.9 145.6L483.9 145.6Q483.9 143.7 483.4 142.2Q482.8 140.7 481.8 139.9Q480.8 139.0 479.3 139.0L479.3 139.0Q477.8 139.0 476.8 139.9Q475.7 140.7 475.2 142.2Q474.7 143.7 474.7 145.6L474.7 145.6Q474.7 147.5 475.2 149.0Q475.7 150.5 476.8 151.4Q477.8 152.2 479.3 152.2ZM499.7 143.9L499.7 143.9L499.7 156.5L493.7 156.5L493.7 134.7L499.4 134.7L499.4 138.5L499.7 138.5Q500.4 136.6 502.1 135.5Q503.8 134.4 506.2 134.4L506.2 134.4Q508.5 134.4 510.2 135.4Q511.9 136.4 512.8 138.2Q513.8 140.0 513.8 142.6L513.8 142.6L513.8 156.5L507.7 156.5L507.7 143.7Q507.7 141.7 506.7 140.5Q505.7 139.4 503.8 139.4L503.8 139.4Q502.6 139.4 501.7 139.9Q500.8 140.5 500.2 141.5Q499.7 142.5 499.7 143.9Z M525.6 134.7L538.8 134.7L538.8 139.2L525.6 139.2L525.6 134.7ZM528.6 150.6L528.6 129.4L534.7 129.4L534.7 149.8Q534.7 150.6 534.9 151.1Q535.2 151.5 535.6 151.7Q536.1 151.9 536.7 151.9L536.7 151.9Q537.1 151.9 537.6 151.8Q538.0 151.7 538.2 151.7L538.2 151.7L539.2 156.2Q538.7 156.3 537.9 156.5Q537.1 156.7 535.9 156.8L535.9 156.8Q533.7 156.9 532.1 156.2Q530.4 155.5 529.5 154.1Q528.6 152.7 528.6 150.6L528.6 150.6ZM548.9 143.9L548.9 143.9L548.9 156.5L542.8 156.5L542.8 127.4L548.7 127.4L548.7 138.5L549.0 138.5Q549.7 136.6 551.4 135.5Q553.0 134.4 555.5 134.4L555.5 134.4Q557.8 134.4 559.5 135.4Q561.2 136.3 562.1 138.2Q563.0 140.0 563.0 142.6L563.0 142.6L563.0 156.5L557.0 156.5L557.0 143.7Q557.0 141.6 556.0 140.5Q554.9 139.4 553.1 139.4L553.1 139.4Q551.9 139.4 550.9 139.9Q550.0 140.5 549.4 141.5Q548.9 142.5 548.9 143.9ZM577.4 156.9L577.4 156.9Q574.1 156.9 571.6 155.5Q569.2 154.2 567.9 151.6Q566.6 149.1 566.6 145.7L566.6 145.7Q566.6 142.3 567.9 139.8Q569.2 137.2 571.6 135.8Q574.0 134.4 577.2 134.4L577.2 134.4Q579.3 134.4 581.2 135.1Q583.1 135.7 584.5 137.1Q585.9 138.5 586.7 140.6Q587.4 142.7 587.4 145.5L587.4 145.5L587.4 147.1L569.0 147.1L569.0 143.4L581.7 143.4Q581.7 142.1 581.2 141.0Q580.6 140.0 579.6 139.5Q578.6 138.9 577.3 138.9L577.3 138.9Q575.9 138.9 574.9 139.5Q573.8 140.2 573.2 141.2Q572.6 142.3 572.6 143.6L572.6 143.6L572.6 147.1Q572.6 148.7 573.2 149.9Q573.8 151.1 574.9 151.7Q576.0 152.4 577.5 152.4L577.5 152.4Q578.5 152.4 579.4 152.1Q580.2 151.8 580.8 151.2Q581.4 150.7 581.7 149.9L581.7 149.9L587.3 150.2Q586.9 152.2 585.6 153.7Q584.3 155.2 582.2 156.1Q580.1 156.9 577.4 156.9Z M278.2 213.0L258.6 213.0L258.6 183.9L278.2 183.9L278.2 188.9L264.7 188.9L264.7 195.9L277.2 195.9L277.2 200.9L264.7 200.9L264.7 207.9L278.2 207.9L278.2 213.0ZM296.6 191.1L303.0 191.1L295.4 213.0L288.5 213.0L280.9 191.1L287.3 191.1L291.8 206.7L292.1 206.7L296.6 191.1ZM314.9 213.4L314.9 213.4Q311.6 213.4 309.2 212.0Q306.8 210.6 305.5 208.0Q304.2 205.5 304.2 202.1L304.2 202.1Q304.2 198.7 305.5 196.2Q306.8 193.7 309.2 192.3Q311.6 190.8 314.9 190.8L314.9 190.8Q318.2 190.8 320.6 192.3Q323.0 193.7 324.3 196.2Q325.6 198.7 325.6 202.1L325.6 202.1Q325.6 205.5 324.3 208.0Q323.0 210.6 320.6 212.0Q318.2 213.4 314.9 213.4ZM314.9 208.7L314.9 208.7Q316.4 208.7 317.4 207.8Q318.5 207.0 319.0 205.5Q319.5 204.0 319.5 202.1L319.5 202.1Q319.5 200.2 319.0 198.7Q318.5 197.2 317.4 196.3Q316.4 195.5 314.9 195.5L314.9 195.5Q313.4 195.5 312.4 196.3Q311.4 197.2 310.8 198.7Q310.3 200.2 310.3 202.1L310.3 202.1Q310.3 204.0 310.8 205.5Q311.4 207.0 312.4 207.8Q313.4 208.7 314.9 208.7ZM329.3 183.9L335.3 183.9L335.3 213.0L329.3 213.0L329.3 183.9ZM353.8 203.7L353.8 203.7L353.8 191.1L359.9 191.1L359.9 213.0L354.1 213.0L354.1 209.0L353.8 209.0Q353.1 210.9 351.4 212.1Q349.7 213.2 347.2 213.2L347.2 213.2Q345.0 213.2 343.4 212.2Q341.7 211.2 340.8 209.4Q339.8 207.6 339.8 205.0L339.8 205.0L339.8 191.1L345.9 191.1L345.9 203.9Q345.9 205.9 346.9 207.0Q347.9 208.1 349.7 208.1L349.7 208.1Q350.8 208.1 351.7 207.6Q352.7 207.1 353.2 206.1Q353.8 205.1 353.8 203.7ZM362.8 191.1L376.0 191.1L376.0 195.7L362.8 195.7L362.8 191.1ZM365.8 207.0L365.8 185.9L371.9 185.9L371.9 206.2Q371.9 207.1 372.1 207.5Q372.4 208.0 372.9 208.2Q373.3 208.4 373.9 208.4L373.9 208.4Q374.4 208.4 374.8 208.3Q375.2 208.2 375.4 208.2L375.4 208.2L376.4 212.7Q375.9 212.8 375.1 213.0Q374.3 213.2 373.1 213.2L373.1 213.2Q370.9 213.3 369.3 212.7Q367.6 212.0 366.7 210.6Q365.8 209.2 365.8 207.0L365.8 207.0ZM385.7 213.0L379.6 213.0L379.6 191.1L385.7 191.1L385.7 213.0ZM382.6 188.3L382.6 188.3Q381.3 188.3 380.3 187.4Q379.4 186.5 379.4 185.3L379.4 185.3Q379.4 184.0 380.3 183.1Q381.3 182.2 382.6 182.2L382.6 182.2Q384.0 182.2 385.0 183.1Q385.9 184.0 385.9 185.3L385.9 185.3Q385.9 186.5 385.0 187.4Q384.0 188.3 382.6 188.3ZM400.0 213.4L400.0 213.4Q396.7 213.4 394.3 212.0Q391.9 210.6 390.6 208.0Q389.3 205.5 389.3 202.1L389.3 202.1Q389.3 198.7 390.6 196.2Q391.9 193.7 394.3 192.3Q396.7 190.8 400.0 190.8L400.0 190.8Q403.3 190.8 405.7 192.3Q408.1 193.7 409.5 196.2Q410.8 198.7 410.8 202.1L410.8 202.1Q410.8 205.5 409.5 208.0Q408.1 210.6 405.7 212.0Q403.3 213.4 400.0 213.4ZM400.1 208.7L400.1 208.7Q401.6 208.7 402.6 207.8Q403.6 207.0 404.1 205.5Q404.6 204.0 404.6 202.1L404.6 202.1Q404.6 200.2 404.1 198.7Q403.6 197.2 402.6 196.3Q401.6 195.5 400.1 195.5L400.1 195.5Q398.5 195.5 397.5 196.3Q396.5 197.2 396.0 198.7Q395.4 200.2 395.4 202.1L395.4 202.1Q395.4 204.0 396.0 205.5Q396.5 207.0 397.5 207.8Q398.5 208.7 400.1 208.7ZM420.4 200.3L420.4 200.3L420.4 213.0L414.4 213.0L414.4 191.1L420.2 191.1L420.2 195.0L420.4 195.0Q421.1 193.1 422.8 192.0Q424.5 190.8 427.0 190.8L427.0 190.8Q429.2 190.8 430.9 191.8Q432.6 192.8 433.6 194.7Q434.5 196.5 434.5 199.1L434.5 199.1L434.5 213.0L428.5 213.0L428.5 200.1Q428.5 198.1 427.4 197.0Q426.4 195.9 424.6 195.9L424.6 195.9Q423.4 195.9 422.4 196.4Q421.5 196.9 421.0 197.9Q420.5 198.9 420.4 200.3Z M458.5 213.4L458.5 213.4Q455.2 213.4 452.8 212.0Q450.4 210.6 449.0 208.0Q447.7 205.5 447.7 202.1L447.7 202.1Q447.7 198.7 449.0 196.2Q450.4 193.7 452.8 192.3Q455.2 190.8 458.5 190.8L458.5 190.8Q461.8 190.8 464.2 192.3Q466.6 193.7 467.9 196.2Q469.2 198.7 469.2 202.1L469.2 202.1Q469.2 205.5 467.9 208.0Q466.6 210.6 464.2 212.0Q461.8 213.4 458.5 213.4ZM458.5 208.7L458.5 208.7Q460.0 208.7 461.0 207.8Q462.0 207.0 462.5 205.5Q463.1 204.0 463.1 202.1L463.1 202.1Q463.1 200.2 462.5 198.7Q462.0 197.2 461.0 196.3Q460.0 195.5 458.5 195.5L458.5 195.5Q457.0 195.5 456.0 196.3Q454.9 197.2 454.4 198.7Q453.9 200.2 453.9 202.1L453.9 202.1Q453.9 204.0 454.4 205.5Q454.9 207.0 456.0 207.8Q457.0 208.7 458.5 208.7ZM471.1 191.1L484.6 191.1L484.6 195.7L471.1 195.7L471.1 191.1ZM480.2 213.0L474.2 213.0L474.2 189.6Q474.2 187.2 475.1 185.6Q476.1 184.1 477.7 183.3Q479.3 182.5 481.4 182.5L481.4 182.5Q482.7 182.5 483.9 182.7Q485.1 182.9 485.6 183.1L485.6 183.1L484.6 187.6Q484.2 187.5 483.7 187.4Q483.2 187.3 482.6 187.3L482.6 187.3Q481.3 187.3 480.8 187.9Q480.2 188.6 480.2 189.7L480.2 189.7L480.2 213.0Z M509.3 190.5L502.0 213.0L495.4 213.0L505.5 183.9L513.4 183.9L523.4 213.0L516.9 213.0L509.6 190.5L509.3 190.5ZM501.6 206.3L501.6 201.5L517.2 201.5L517.2 206.3L501.6 206.3ZM526.6 183.9L532.8 183.9L532.8 213.0L526.6 213.0L526.6 183.9Z M317.7 269.4L311.5 269.4L311.5 240.3L323.0 240.3Q326.3 240.3 328.6 241.5Q331.0 242.7 332.2 244.8Q333.4 247.0 333.4 249.8L333.4 249.8Q333.4 252.7 332.2 254.8Q330.9 256.9 328.6 258.0Q326.2 259.1 322.8 259.1L322.8 259.1L315.2 259.1L315.2 254.2L321.9 254.2Q323.6 254.2 324.8 253.7Q325.9 253.2 326.5 252.2Q327.1 251.3 327.1 249.8L327.1 249.8Q327.1 248.4 326.5 247.4Q325.9 246.4 324.8 245.9Q323.6 245.4 321.8 245.4L321.8 245.4L317.7 245.4L317.7 269.4ZM320.6 256.2L327.2 256.2L334.5 269.4L327.7 269.4L320.6 256.2ZM346.9 269.9L346.9 269.9Q343.6 269.9 341.1 268.5Q338.7 267.1 337.4 264.6Q336.1 262.1 336.1 258.6L336.1 258.6Q336.1 255.3 337.4 252.7Q338.7 250.2 341.1 248.7Q343.5 247.3 346.7 247.3L346.7 247.3Q348.8 247.3 350.7 248.0Q352.6 248.7 354.0 250.1Q355.4 251.5 356.2 253.5Q356.9 255.6 356.9 258.4L356.9 258.4L356.9 260.1L338.5 260.1L338.5 256.3L351.2 256.3Q351.2 255.0 350.7 254.0Q350.1 253.0 349.1 252.4Q348.1 251.8 346.8 251.8L346.8 251.8Q345.4 251.8 344.3 252.5Q343.3 253.1 342.7 254.2Q342.1 255.2 342.1 256.5L342.1 256.5L342.1 260.1Q342.1 261.7 342.7 262.9Q343.3 264.1 344.4 264.7Q345.5 265.3 347.0 265.3L347.0 265.3Q348.0 265.3 348.9 265.1Q349.7 264.8 350.3 264.2Q350.9 263.6 351.2 262.8L351.2 262.8L356.8 263.2Q356.4 265.2 355.1 266.7Q353.8 268.2 351.7 269.0Q349.6 269.9 346.9 269.9ZM378.7 253.8L378.7 253.8L373.2 254.2Q373.0 253.5 372.6 252.9Q372.1 252.3 371.3 252.0Q370.6 251.6 369.5 251.6L369.5 251.6Q368.1 251.6 367.2 252.2Q366.2 252.8 366.2 253.8L366.2 253.8Q366.2 254.6 366.8 255.1Q367.4 255.6 369.0 256.0L369.0 256.0L372.9 256.8Q376.1 257.4 377.6 258.9Q379.2 260.3 379.2 262.7L379.2 262.7Q379.2 264.8 378.0 266.4Q376.7 268.1 374.5 269.0Q372.3 269.9 369.5 269.9L369.5 269.9Q365.2 269.9 362.6 268.0Q360.0 266.2 359.6 263.1L359.6 263.1L365.5 262.8Q365.8 264.1 366.9 264.8Q367.9 265.5 369.5 265.5L369.5 265.5Q371.1 265.5 372.1 264.9Q373.0 264.3 373.1 263.3L373.1 263.3Q373.0 262.5 372.4 261.9Q371.7 261.4 370.3 261.1L370.3 261.1L366.5 260.4Q363.3 259.7 361.7 258.1Q360.2 256.6 360.2 254.1L360.2 254.1Q360.2 252.0 361.3 250.5Q362.5 249.0 364.5 248.2Q366.6 247.3 369.4 247.3L369.4 247.3Q373.6 247.3 375.9 249.1Q378.3 250.8 378.7 253.8ZM392.7 269.9L392.7 269.9Q389.3 269.9 386.9 268.5Q384.4 267.1 383.1 264.6Q381.8 262.1 381.8 258.6L381.8 258.6Q381.8 255.3 383.1 252.7Q384.4 250.2 386.8 248.7Q389.2 247.3 392.4 247.3L392.4 247.3Q394.6 247.3 396.4 248.0Q398.3 248.7 399.7 250.1Q401.1 251.5 401.9 253.5Q402.7 255.6 402.7 258.4L402.7 258.4L402.7 260.1L384.2 260.1L384.2 256.3L397.0 256.3Q397.0 255.0 396.4 254.0Q395.8 253.0 394.8 252.4Q393.8 251.8 392.5 251.8L392.5 251.8Q391.1 251.8 390.1 252.5Q389.0 253.1 388.4 254.2Q387.8 255.2 387.8 256.5L387.8 256.5L387.8 260.1Q387.8 261.7 388.4 262.9Q389.0 264.1 390.1 264.7Q391.2 265.3 392.8 265.3L392.8 265.3Q393.8 265.3 394.6 265.1Q395.4 264.8 396.0 264.2Q396.6 263.6 396.9 262.8L396.9 262.8L402.5 263.2Q402.1 265.2 400.8 266.7Q399.5 268.2 397.4 269.0Q395.4 269.9 392.7 269.9ZM412.5 269.8L412.5 269.8Q410.4 269.8 408.8 269.1Q407.2 268.4 406.2 266.9Q405.3 265.5 405.3 263.3L405.3 263.3Q405.3 261.5 405.9 260.3Q406.6 259.0 407.8 258.3Q408.9 257.5 410.4 257.2Q411.9 256.8 413.5 256.6L413.5 256.6Q415.4 256.4 416.5 256.2Q417.7 256.1 418.2 255.7Q418.8 255.4 418.8 254.7L418.8 254.7L418.8 254.6Q418.8 253.2 417.9 252.5Q417.1 251.7 415.5 251.7L415.5 251.7Q413.9 251.7 412.9 252.5Q412.0 253.2 411.6 254.3L411.6 254.3L406.0 253.8Q406.5 251.8 407.7 250.4Q409.0 248.9 411.0 248.1Q412.9 247.3 415.5 247.3L415.5 247.3Q417.4 247.3 419.0 247.8Q420.7 248.2 422.0 249.1Q423.3 250.0 424.1 251.4Q424.8 252.8 424.8 254.7L424.8 254.7L424.8 269.4L419.1 269.4L419.1 266.4L418.9 266.4Q418.4 267.4 417.5 268.2Q416.6 269.0 415.4 269.4Q414.1 269.8 412.5 269.8ZM414.3 265.7L414.3 265.7Q415.6 265.7 416.6 265.1Q417.6 264.6 418.2 263.7Q418.8 262.8 418.8 261.6L418.8 261.6L418.8 259.3Q418.5 259.5 418.0 259.6Q417.5 259.8 416.9 259.9Q416.3 260.0 415.7 260.1Q415.1 260.2 414.6 260.3L414.6 260.3Q413.5 260.5 412.7 260.8Q411.9 261.1 411.5 261.7Q411.1 262.3 411.1 263.1L411.1 263.1Q411.1 264.4 412.0 265.0Q412.9 265.7 414.3 265.7ZM435.2 269.4L429.2 269.4L429.2 247.6L435.1 247.6L435.1 251.4L435.3 251.4Q435.9 249.4 437.3 248.3Q438.7 247.3 440.5 247.3L440.5 247.3Q441.0 247.3 441.5 247.4Q442.0 247.4 442.4 247.5L442.4 247.5L442.4 252.9Q442.0 252.8 441.2 252.7Q440.5 252.6 439.9 252.6L439.9 252.6Q438.5 252.6 437.5 253.1Q436.4 253.7 435.8 254.7Q435.2 255.7 435.2 257.1L435.2 257.1L435.2 269.4ZM454.1 269.9L454.1 269.9Q450.7 269.9 448.3 268.4Q445.9 267.0 444.6 264.5Q443.3 261.9 443.3 258.6L443.3 258.6Q443.3 255.3 444.6 252.7Q445.9 250.2 448.3 248.8Q450.7 247.3 454.0 247.3L454.0 247.3Q456.9 247.3 459.0 248.4Q461.2 249.4 462.4 251.3Q463.7 253.2 463.8 255.7L463.8 255.7L458.1 255.7Q457.8 254.0 456.8 253.0Q455.8 252.0 454.1 252.0L454.1 252.0Q452.7 252.0 451.7 252.8Q450.6 253.6 450.0 255.0Q449.5 256.5 449.5 258.5L449.5 258.5Q449.5 260.6 450.0 262.1Q450.6 263.5 451.7 264.3Q452.7 265.1 454.1 265.1L454.1 265.1Q455.2 265.1 456.0 264.6Q456.8 264.2 457.4 263.4Q457.9 262.6 458.1 261.4L458.1 261.4L463.8 261.4Q463.7 263.9 462.4 265.8Q461.2 267.7 459.1 268.8Q457.0 269.9 454.1 269.9ZM473.4 256.8L473.4 256.8L473.4 269.4L467.4 269.4L467.4 240.3L473.3 240.3L473.3 251.5L473.5 251.5Q474.2 249.5 475.9 248.4Q477.5 247.3 480.0 247.3L480.0 247.3Q482.3 247.3 484.0 248.3Q485.7 249.3 486.6 251.1Q487.6 253.0 487.6 255.5L487.6 255.5L487.6 269.4L481.5 269.4L481.5 256.6Q481.5 254.6 480.5 253.5Q479.5 252.4 477.6 252.4L477.6 252.4Q476.4 252.4 475.4 252.9Q474.5 253.4 474.0 254.4Q473.4 255.4 473.4 256.8Z "></path></svg>